<svg width="6" height="11" viewBox="0 0 6 11" fill="none" xmlns="http://www.w3.org/2000/svg">
    <path d="M0.0784063 1.01525C0.0282258 0.965642 -5.27451e-10 0.898119 -4.86083e-10 0.82768C-4.44715e-10 0.75724 0.0282258 0.689717 0.0784063 0.640113L0.640348 0.0800558C0.688449 0.0289758 0.755607 0 0.825895 0C0.896183 0 0.963341 0.0289758 1.01144 0.0800558L5.88337 4.93565C5.95796 5.00989 5.99991 5.11062 6 5.21568L6 5.35305C5.99991 5.45811 5.95796 5.55883 5.88337 5.63308L1.01144 10.4887C0.963341 10.5397 0.896183 10.5687 0.825895 10.5687C0.755607 10.5687 0.688449 10.5397 0.640348 10.4887L0.0784063 9.92861C0.0282258 9.87901 -5.76214e-09 9.81149 -5.72077e-09 9.74104C-5.6794e-09 9.67061 0.0282258 9.60308 0.0784063 9.55348L4.36189 5.28436L0.0784063 1.01525Z" fill="#DFDFDF"/>
</svg>
