<svg width="6" height="11" viewBox="0 0 6 11" fill="none" xmlns="http://www.w3.org/2000/svg">
    <path d="M5.92159 9.5536C5.97177 9.60321 6 9.67073 6 9.74117C6 9.81161 5.97177 9.87913 5.92159 9.92873L5.35965 10.4888C5.31155 10.5399 5.24439 10.5688 5.17411 10.5688C5.10382 10.5688 5.03666 10.5399 4.98856 10.4888L0.116631 5.6332C0.0420446 5.55896 9.39084e-05 5.45823 1.41118e-06 5.35317L1.42323e-06 5.2158C9.39389e-05 5.11074 0.0420447 5.01001 0.116631 4.93577L4.98856 0.0801782C5.03666 0.0290984 5.10382 0.000122946 5.17411 0.000122952C5.24439 0.000122958 5.31155 0.0290985 5.35965 0.0801782L5.92159 0.640236C5.97178 0.689839 6 0.757362 6 0.827803C6 0.898242 5.97178 0.965765 5.92159 1.01537L1.63811 5.28448L5.92159 9.5536Z" fill="#474747"/>
</svg>
