<svg width="32" height="32" viewBox="0 0 32 32" fill="none" xmlns="http://www.w3.org/2000/svg">
    <rect y="0.000213623" width="32" height="32" rx="3" fill="#F4F4F4"/>
    <path d="M18.9216 19.5858C18.9718 19.6356 19 19.7033 19 19.774C19 19.8447 18.9718 19.9124 18.9216 19.9622L18.3597 20.5241C18.3116 20.5754 18.2444 20.6045 18.1741 20.6045C18.1038 20.6045 18.0367 20.5754 17.9886 20.5241L13.1166 15.6522C13.042 15.5777 13.0001 15.4767 13 15.3712L13 15.2334C13.0001 15.128 13.042 15.0269 13.1166 14.9524L17.9886 10.0805C18.0367 10.0292 18.1038 10.0002 18.1741 10.0002C18.2444 10.0002 18.3116 10.0292 18.3597 10.0805L18.9216 10.6424C18.9718 10.6922 19 10.76 19 10.8306C19 10.9013 18.9718 10.9691 18.9216 11.0188L14.6381 15.3023L18.9216 19.5858Z" fill="#474747"/>
</svg>
