<svg width="32" height="32" viewBox="0 0 32 32" fill="none" xmlns="http://www.w3.org/2000/svg">
    <rect x="31.5" y="31.5004" width="31" height="31" rx="2.5" transform="rotate(180 31.5 31.5004)" stroke="#474747"/>
    <path d="M13.0784 12.4148C13.0282 12.365 13 12.2973 13 12.2266C13 12.1559 13.0282 12.0882 13.0784 12.0384L13.6403 11.4764C13.6884 11.4252 13.7556 11.3961 13.8259 11.3961C13.8962 11.3961 13.9633 11.4252 14.0114 11.4764L18.8834 16.3484C18.958 16.4229 18.9999 16.5239 19 16.6293V16.7672C18.9999 16.8726 18.958 16.9737 18.8834 17.0481L14.0114 21.9201C13.9633 21.9713 13.8962 22.0004 13.8259 22.0004C13.7556 22.0004 13.6884 21.9713 13.6403 21.9201L13.0784 21.3581C13.0282 21.3084 13 21.2406 13 21.1699C13 21.0993 13.0282 21.0315 13.0784 20.9817L17.3619 16.6983L13.0784 12.4148Z" fill="#474747"/>
</svg>
